<?xml version="1.0" encoding="UTF-8" standalone="no"?>
<!DOCTYPE svg PUBLIC "-//W3C//DTD SVG 1.1//EN"
 "http://www.w3.org/Graphics/SVG/1.1/DTD/svg11.dtd">
<!-- Generated by graphviz version 5.0.0 (20220707.1540)
 -->
<!-- Title: StorageDiagram Pages: 1 -->
<svg width="3581pt" height="422pt"
 viewBox="0.00 0.00 3581.31 421.80" xmlns="http://www.w3.org/2000/svg" xmlns:xlink="http://www.w3.org/1999/xlink">
<g id="graph0" class="graph" transform="scale(1 1) rotate(0) translate(4 417.8)">
<title>StorageDiagram</title>
<polygon fill="white" stroke="transparent" points="-4,4 -4,-417.8 3577.31,-417.8 3577.31,4 -4,4"/>
<!-- 144 -->
<g id="node1" class="node">
<title>144</title>
<polygon fill="#f2f2f2" stroke="black" points="0,-169.5 0,-384.7 845.33,-384.7 845.33,-169.5 0,-169.5"/>
<text text-anchor="middle" x="422.66" y="-368.1" font-family="Courier New" font-size="14.00">EmissionsController &lt;&lt;Contract&gt;&gt;</text>
<text text-anchor="middle" x="422.66" y="-351.3" font-family="Courier New" font-size="14.00">0xebfd9cD78510c591eDa8735D0F8a87414eF27A83</text>
<polyline fill="none" stroke="black" points="0,-343.1 845.33,-343.1 "/>
<text text-anchor="middle" x="24.8" y="-326.5" font-family="Courier New" font-size="14.00">slot</text>
<polyline fill="none" stroke="black" points="0,-318.3 49.61,-318.3 "/>
<text text-anchor="middle" x="24.8" y="-301.7" font-family="Courier New" font-size="14.00">0</text>
<polyline fill="none" stroke="black" points="0,-293.5 49.61,-293.5 "/>
<text text-anchor="middle" x="24.8" y="-276.9" font-family="Courier New" font-size="14.00">1</text>
<polyline fill="none" stroke="black" points="0,-268.7 49.61,-268.7 "/>
<text text-anchor="middle" x="24.8" y="-252.1" font-family="Courier New" font-size="14.00">2</text>
<polyline fill="none" stroke="black" points="0,-243.9 49.61,-243.9 "/>
<text text-anchor="middle" x="24.8" y="-227.3" font-family="Courier New" font-size="14.00">3</text>
<polyline fill="none" stroke="black" points="0,-219.1 49.61,-219.1 "/>
<text text-anchor="middle" x="24.8" y="-202.5" font-family="Courier New" font-size="14.00">4</text>
<polyline fill="none" stroke="black" points="0,-194.3 49.61,-194.3 "/>
<text text-anchor="middle" x="24.8" y="-177.7" font-family="Courier New" font-size="14.00">5</text>
<polyline fill="none" stroke="black" points="49.61,-169.5 49.61,-343.1 "/>
<text text-anchor="middle" x="447.47" y="-326.5" font-family="Courier New" font-size="14.00">type: &lt;inherited contract&gt;.variable (bytes)</text>
<polyline fill="none" stroke="black" points="49.61,-318.3 845.33,-318.3 "/>
<text text-anchor="middle" x="124.82" y="-301.7" font-family="Courier New" font-size="14.00">unallocated (30)</text>
<polyline fill="none" stroke="black" points="200.03,-293.5 200.03,-318.3 "/>
<text text-anchor="middle" x="363.45" y="-301.7" font-family="Courier New" font-size="14.00">bool: Initializable._initializing (1)</text>
<polyline fill="none" stroke="black" points="526.88,-293.5 526.88,-318.3 "/>
<text text-anchor="middle" x="686.1" y="-301.7" font-family="Courier New" font-size="14.00">bool: Initializable._initialized (1)</text>
<polyline fill="none" stroke="black" points="49.61,-293.5 845.33,-293.5 "/>
<text text-anchor="middle" x="447.12" y="-276.9" font-family="Courier New" font-size="14.00">EpochHistory: epochs (32)</text>
<polyline fill="none" stroke="black" points="49.61,-268.7 845.33,-268.7 "/>
<text text-anchor="middle" x="447.24" y="-252.1" font-family="Courier New" font-size="14.00">mapping(address=&gt;uint32): stakingContractAddTime (32)</text>
<polyline fill="none" stroke="black" points="49.61,-243.9 845.33,-243.9 "/>
<text text-anchor="middle" x="447.33" y="-227.3" font-family="Courier New" font-size="14.00">IVotes[]: stakingContracts (32)</text>
<polyline fill="none" stroke="black" points="49.61,-219.1 845.33,-219.1 "/>
<text text-anchor="middle" x="447.02" y="-202.5" font-family="Courier New" font-size="14.00">DialData[]: dials (32)</text>
<polyline fill="none" stroke="black" points="49.61,-194.3 845.33,-194.3 "/>
<text text-anchor="middle" x="447.04" y="-177.7" font-family="Courier New" font-size="14.00">mapping(address=&gt;VoterPreferences): voterPreferences (32)</text>
</g>
<!-- 137 -->
<g id="node2" class="node">
<title>137</title>
<polygon fill="#f2f2f2" stroke="black" points="906.53,-338.9 906.53,-413.3 1499.82,-413.3 1499.82,-338.9 906.53,-338.9"/>
<text text-anchor="middle" x="1203.17" y="-396.7" font-family="Courier New" font-size="14.00">EpochHistory &lt;&lt;Struct&gt;&gt;</text>
<polyline fill="none" stroke="black" points="906.53,-388.5 1499.82,-388.5 "/>
<text text-anchor="middle" x="931.33" y="-371.9" font-family="Courier New" font-size="14.00">slot</text>
<polyline fill="none" stroke="black" points="906.53,-363.7 956.14,-363.7 "/>
<text text-anchor="middle" x="931.33" y="-347.1" font-family="Courier New" font-size="14.00">1</text>
<polyline fill="none" stroke="black" points="956.14,-338.9 956.14,-388.5 "/>
<text text-anchor="middle" x="1227.98" y="-371.9" font-family="Courier New" font-size="14.00">type: variable (bytes)</text>
<polyline fill="none" stroke="black" points="956.14,-363.7 1499.82,-363.7 "/>
<text text-anchor="middle" x="1031.35" y="-347.1" font-family="Courier New" font-size="14.00">unallocated (24)</text>
<polyline fill="none" stroke="black" points="1106.56,-338.9 1106.56,-363.7 "/>
<text text-anchor="middle" x="1202.77" y="-347.1" font-family="Courier New" font-size="14.00">uint32: lastEpoch (4)</text>
<polyline fill="none" stroke="black" points="1298.99,-338.9 1298.99,-363.7 "/>
<text text-anchor="middle" x="1399.4" y="-347.1" font-family="Courier New" font-size="14.00">uint32: startEpoch (4)</text>
</g>
<!-- 144&#45;&gt;137 -->
<g id="edge1" class="edge">
<title>144:396&#45;&gt;137</title>
<path fill="none" stroke="black" d="M845.33,-281.1C871.99,-281.1 858.41,-315.47 881.33,-329.1 886.52,-332.19 891.84,-335.1 897.27,-337.84"/>
<polygon fill="black" stroke="black" points="895.98,-341.11 906.51,-342.3 899.02,-334.8 895.98,-341.11"/>
</g>
<!-- 138 -->
<g id="node3" class="node">
<title>138</title>
<polygon fill="#f2f2f2" stroke="black" points="917.93,-228.5 917.93,-319.7 1488.42,-319.7 1488.42,-228.5 917.93,-228.5"/>
<text text-anchor="middle" x="1203.17" y="-303.1" font-family="Courier New" font-size="14.00">IVotes[]: stakingContracts &lt;&lt;Array&gt;&gt;</text>
<text text-anchor="middle" x="1203.17" y="-286.3" font-family="Courier New" font-size="14.00">0x11987c15ef5ed64ec2e3cd9cfc79d7bd155aea3982ea59f35a5e6b5c1593a54b</text>
<polyline fill="none" stroke="black" points="917.93,-278.1 1488.42,-278.1 "/>
<text text-anchor="middle" x="1008.23" y="-261.5" font-family="Courier New" font-size="14.00">slot</text>
<polyline fill="none" stroke="black" points="917.93,-253.3 1098.53,-253.3 "/>
<text text-anchor="middle" x="1008.23" y="-236.7" font-family="Courier New" font-size="14.00">0</text>
<polyline fill="none" stroke="black" points="1098.53,-228.5 1098.53,-278.1 "/>
<text text-anchor="middle" x="1293.45" y="-261.5" font-family="Courier New" font-size="14.00">type: variable (bytes)</text>
<polyline fill="none" stroke="black" points="1098.53,-253.3 1488.37,-253.3 "/>
<text text-anchor="middle" x="1206.25" y="-236.7" font-family="Courier New" font-size="14.00">unallocated (12)</text>
<polyline fill="none" stroke="black" points="1313.96,-228.5 1313.96,-253.3 "/>
<text text-anchor="middle" x="1401.16" y="-236.7" font-family="Courier New" font-size="14.00">IVotes (20)</text>
</g>
<!-- 144&#45;&gt;138 -->
<g id="edge2" class="edge">
<title>144:399&#45;&gt;138</title>
<path fill="none" stroke="black" d="M845.33,-231.1C865.66,-231.1 886.6,-231.8 907.67,-233.01"/>
<polygon fill="black" stroke="black" points="907.48,-236.51 917.68,-233.63 907.91,-229.52 907.48,-236.51"/>
</g>
<!-- 142 -->
<g id="node7" class="node">
<title>142</title>
<polygon fill="#f2f2f2" stroke="black" points="917.93,-118.5 917.93,-209.7 1488.42,-209.7 1488.42,-118.5 917.93,-118.5"/>
<text text-anchor="middle" x="1203.17" y="-193.1" font-family="Courier New" font-size="14.00">DialData[]: dials &lt;&lt;Array&gt;&gt;</text>
<text text-anchor="middle" x="1203.17" y="-176.3" font-family="Courier New" font-size="14.00">0x68f9c7fa29c0442459fc0d2760448ff932de4dd67b90b4a6ac1899621cfd70a7</text>
<polyline fill="none" stroke="black" points="917.93,-168.1 1488.42,-168.1 "/>
<text text-anchor="middle" x="1022.73" y="-151.5" font-family="Courier New" font-size="14.00">slot</text>
<polyline fill="none" stroke="black" points="917.93,-143.3 1127.53,-143.3 "/>
<text text-anchor="middle" x="1022.73" y="-126.7" font-family="Courier New" font-size="14.00">0&#45;2</text>
<polyline fill="none" stroke="black" points="1127.53,-118.5 1127.53,-168.1 "/>
<text text-anchor="middle" x="1307.95" y="-151.5" font-family="Courier New" font-size="14.00">type: variable (bytes)</text>
<polyline fill="none" stroke="black" points="1127.53,-143.3 1488.36,-143.3 "/>
<text text-anchor="middle" x="1307.64" y="-126.7" font-family="Courier New" font-size="14.00">DialData (96)</text>
</g>
<!-- 144&#45;&gt;142 -->
<g id="edge3" class="edge">
<title>144:410&#45;&gt;142</title>
<path fill="none" stroke="black" d="M845.33,-207.1C865.66,-207.1 886.6,-206.4 907.67,-205.19"/>
<polygon fill="black" stroke="black" points="907.91,-208.68 917.68,-204.57 907.48,-201.69 907.91,-208.68"/>
</g>
<!-- 143 -->
<g id="node8" class="node">
<title>143</title>
<polygon fill="#f2f2f2" stroke="black" points="881.33,-0.5 881.33,-99.7 1525.02,-99.7 1525.02,-0.5 881.33,-0.5"/>
<text text-anchor="middle" x="1203.17" y="-83.1" font-family="Courier New" font-size="14.00">VoterPreferences &lt;&lt;Struct&gt;&gt;</text>
<polyline fill="none" stroke="black" points="881.33,-74.9 1525.02,-74.9 "/>
<text text-anchor="middle" x="906.13" y="-58.3" font-family="Courier New" font-size="14.00">slot</text>
<polyline fill="none" stroke="black" points="881.33,-50.1 930.93,-50.1 "/>
<text text-anchor="middle" x="906.13" y="-33.5" font-family="Courier New" font-size="14.00">0</text>
<polyline fill="none" stroke="black" points="881.33,-25.3 930.93,-25.3 "/>
<text text-anchor="middle" x="906.13" y="-8.7" font-family="Courier New" font-size="14.00">1</text>
<polyline fill="none" stroke="black" points="930.93,-0.5 930.93,-74.9 "/>
<text text-anchor="middle" x="1227.98" y="-58.3" font-family="Courier New" font-size="14.00">type: variable (bytes)</text>
<polyline fill="none" stroke="black" points="930.93,-50.1 1525.02,-50.1 "/>
<text text-anchor="middle" x="1227.95" y="-33.5" font-family="Courier New" font-size="14.00">uint256: dialWeights (32)</text>
<polyline fill="none" stroke="black" points="930.93,-25.3 1525.02,-25.3 "/>
<text text-anchor="middle" x="1006.14" y="-8.7" font-family="Courier New" font-size="14.00">unallocated (12)</text>
<polyline fill="none" stroke="black" points="1081.35,-0.5 1081.35,-25.3 "/>
<text text-anchor="middle" x="1198.57" y="-8.7" font-family="Courier New" font-size="14.00">uint32: lastSourcePoke (4)</text>
<polyline fill="none" stroke="black" points="1315.79,-0.5 1315.79,-25.3 "/>
<text text-anchor="middle" x="1420.41" y="-8.7" font-family="Courier New" font-size="14.00">uint128: votesCast (16)</text>
</g>
<!-- 144&#45;&gt;143 -->
<g id="edge4" class="edge">
<title>144:414&#45;&gt;143</title>
<path fill="none" stroke="black" d="M845.33,-182.1C881.5,-182.1 852.47,-130.91 881.33,-109.1 882.94,-107.88 884.56,-106.69 886.21,-105.52"/>
<polygon fill="black" stroke="black" points="888.26,-108.36 894.56,-99.84 884.32,-102.57 888.26,-108.36"/>
</g>
<!-- 139 -->
<g id="node4" class="node">
<title>139</title>
<polygon fill="#f2f2f2" stroke="black" points="3038.83,-10.9 3038.83,-85.3 3573.31,-85.3 3573.31,-10.9 3038.83,-10.9"/>
<text text-anchor="middle" x="3306.07" y="-68.7" font-family="Courier New" font-size="14.00">HistoricVotes &lt;&lt;Struct&gt;&gt;</text>
<polyline fill="none" stroke="black" points="3038.83,-60.5 3573.31,-60.5 "/>
<text text-anchor="middle" x="3063.63" y="-43.9" font-family="Courier New" font-size="14.00">slot</text>
<polyline fill="none" stroke="black" points="3038.83,-35.7 3088.44,-35.7 "/>
<text text-anchor="middle" x="3063.63" y="-19.1" font-family="Courier New" font-size="14.00">0</text>
<polyline fill="none" stroke="black" points="3088.44,-10.9 3088.44,-60.5 "/>
<text text-anchor="middle" x="3330.87" y="-43.9" font-family="Courier New" font-size="14.00">type: variable (bytes)</text>
<polyline fill="none" stroke="black" points="3088.44,-35.7 3573.31,-35.7 "/>
<text text-anchor="middle" x="3163.65" y="-19.1" font-family="Courier New" font-size="14.00">unallocated (12)</text>
<polyline fill="none" stroke="black" points="3238.86,-10.9 3238.86,-35.7 "/>
<text text-anchor="middle" x="3318.27" y="-19.1" font-family="Courier New" font-size="14.00">uint32: epoch (4)</text>
<polyline fill="none" stroke="black" points="3397.68,-10.9 3397.68,-35.7 "/>
<text text-anchor="middle" x="3485.5" y="-19.1" font-family="Courier New" font-size="14.00">uint128: votes (16)</text>
</g>
<!-- 140 -->
<g id="node5" class="node">
<title>140</title>
<polygon fill="#f2f2f2" stroke="black" points="2432.34,-35.5 2432.34,-126.7 3002.83,-126.7 3002.83,-35.5 2432.34,-35.5"/>
<text text-anchor="middle" x="2717.59" y="-110.1" font-family="Courier New" font-size="14.00">HistoricVotes[]: voteHistory &lt;&lt;Array&gt;&gt;</text>
<text text-anchor="middle" x="2717.59" y="-93.3" font-family="Courier New" font-size="14.00">0xd3974deccfd8aa6b77f0fcc2c0014e6e0574d32e56c1d75717d2667b529cd073</text>
<polyline fill="none" stroke="black" points="2432.34,-85.1 3002.83,-85.1 "/>
<text text-anchor="middle" x="2537.14" y="-68.5" font-family="Courier New" font-size="14.00">slot</text>
<polyline fill="none" stroke="black" points="2432.34,-60.3 2641.95,-60.3 "/>
<text text-anchor="middle" x="2537.14" y="-43.7" font-family="Courier New" font-size="14.00">0</text>
<polyline fill="none" stroke="black" points="2641.95,-35.5 2641.95,-85.1 "/>
<text text-anchor="middle" x="2822.36" y="-68.5" font-family="Courier New" font-size="14.00">type: variable (bytes)</text>
<polyline fill="none" stroke="black" points="2641.95,-60.3 3002.78,-60.3 "/>
<text text-anchor="middle" x="2822.06" y="-43.7" font-family="Courier New" font-size="14.00">HistoricVotes (32)</text>
</g>
<!-- 140&#45;&gt;139 -->
<g id="edge5" class="edge">
<title>140:406&#45;&gt;139</title>
<path fill="none" stroke="black" d="M3002.83,-48.1C3011.22,-48.1 3019.75,-48.1 3028.35,-48.1"/>
<polygon fill="black" stroke="black" points="3028.49,-51.6 3038.49,-48.1 3028.49,-44.6 3028.49,-51.6"/>
</g>
<!-- 141 -->
<g id="node6" class="node">
<title>141</title>
<polygon fill="#f2f2f2" stroke="black" points="1561.02,-69.1 1561.02,-193.1 2396.34,-193.1 2396.34,-69.1 1561.02,-69.1"/>
<text text-anchor="middle" x="1978.68" y="-176.5" font-family="Courier New" font-size="14.00">DialData &lt;&lt;Struct&gt;&gt;</text>
<polyline fill="none" stroke="black" points="1561.02,-168.3 2396.34,-168.3 "/>
<text text-anchor="middle" x="1585.82" y="-151.7" font-family="Courier New" font-size="14.00">slot</text>
<polyline fill="none" stroke="black" points="1561.02,-143.5 1610.63,-143.5 "/>
<text text-anchor="middle" x="1585.82" y="-126.9" font-family="Courier New" font-size="14.00">0</text>
<polyline fill="none" stroke="black" points="1561.02,-118.7 1610.63,-118.7 "/>
<text text-anchor="middle" x="1585.82" y="-102.1" font-family="Courier New" font-size="14.00">1</text>
<polyline fill="none" stroke="black" points="1561.02,-93.9 1610.63,-93.9 "/>
<text text-anchor="middle" x="1585.82" y="-77.3" font-family="Courier New" font-size="14.00">2</text>
<polyline fill="none" stroke="black" points="1610.63,-69.1 1610.63,-168.3 "/>
<text text-anchor="middle" x="2003.48" y="-151.7" font-family="Courier New" font-size="14.00">type: variable (bytes)</text>
<polyline fill="none" stroke="black" points="1610.63,-143.5 2396.34,-143.5 "/>
<text text-anchor="middle" x="1685.84" y="-126.9" font-family="Courier New" font-size="14.00">unallocated (17)</text>
<polyline fill="none" stroke="black" points="1761.05,-118.7 1761.05,-143.5 "/>
<text text-anchor="middle" x="1853.06" y="-126.9" font-family="Courier New" font-size="14.00">uint96: balance (12)</text>
<polyline fill="none" stroke="black" points="1945.08,-118.7 1945.08,-143.5 "/>
<text text-anchor="middle" x="2011.89" y="-126.9" font-family="Courier New" font-size="14.00">uint8: cap (1)</text>
<polyline fill="none" stroke="black" points="2078.7,-118.7 2078.7,-143.5 "/>
<text text-anchor="middle" x="2153.91" y="-126.9" font-family="Courier New" font-size="14.00">bool: notify (1)</text>
<polyline fill="none" stroke="black" points="2229.12,-118.7 2229.12,-143.5 "/>
<text text-anchor="middle" x="2312.73" y="-126.9" font-family="Courier New" font-size="14.00">bool: disabled (1)</text>
<polyline fill="none" stroke="black" points="1610.63,-118.7 2396.34,-118.7 "/>
<text text-anchor="middle" x="1792.34" y="-102.1" font-family="Courier New" font-size="14.00">unallocated (12)</text>
<polyline fill="none" stroke="black" points="1974.05,-93.9 1974.05,-118.7 "/>
<text text-anchor="middle" x="2185.16" y="-102.1" font-family="Courier New" font-size="14.00">address: recipient (20)</text>
<polyline fill="none" stroke="black" points="1610.63,-93.9 2396.34,-93.9 "/>
<text text-anchor="middle" x="2003.25" y="-77.3" font-family="Courier New" font-size="14.00">HistoricVotes[]: voteHistory (32)</text>
</g>
<!-- 141&#45;&gt;140 -->
<g id="edge6" class="edge">
<title>141:409&#45;&gt;140</title>
<path fill="none" stroke="black" d="M2396.34,-81.1C2404.73,-81.1 2413.25,-81.1 2421.84,-81.1"/>
<polygon fill="black" stroke="black" points="2421.97,-84.6 2431.97,-81.1 2421.97,-77.6 2421.97,-84.6"/>
</g>
<!-- 142&#45;&gt;141 -->
<g id="edge7" class="edge">
<title>142:400&#45;&gt;141</title>
<path fill="none" stroke="black" d="M1489.17,-131.1C1509.31,-131.1 1529.91,-131.1 1550.72,-131.1"/>
<polygon fill="black" stroke="black" points="1550.95,-134.6 1560.95,-131.1 1550.95,-127.6 1550.95,-134.6"/>
</g>
</g>
</svg>
