<?xml version="1.0" encoding="UTF-8" standalone="no"?>
<!DOCTYPE svg PUBLIC "-//W3C//DTD SVG 1.1//EN"
 "http://www.w3.org/Graphics/SVG/1.1/DTD/svg11.dtd">
<!-- Generated by graphviz version 5.0.0 (20220707.1540)
 -->
<!-- Title: StorageDiagram Pages: 1 -->
<svg width="668pt" height="323pt"
 viewBox="0.00 0.00 668.50 323.40" xmlns="http://www.w3.org/2000/svg" xmlns:xlink="http://www.w3.org/1999/xlink">
<g id="graph0" class="graph" transform="scale(1 1) rotate(0) translate(4 319.4)">
<title>StorageDiagram</title>
<polygon fill="white" stroke="transparent" points="-4,4 -4,-319.4 664.5,-319.4 664.5,4 -4,4"/>
<!-- 4 -->
<g id="node1" class="node">
<title>4</title>
<polygon fill="#f2f2f2" stroke="black" points="0,-0.5 0,-314.9 660.5,-314.9 660.5,-0.5 0,-0.5"/>
<text text-anchor="middle" x="330.25" y="-298.3" font-family="Courier New" font-size="14.00">JPYC &lt;&lt;Contract&gt;&gt;</text>
<text text-anchor="middle" x="330.25" y="-281.5" font-family="Courier New" font-size="14.00">0x2370f9d504c7a6E775bf6E14B3F12846b594cD53</text>
<polyline fill="none" stroke="black" points="0,-273.3 660.5,-273.3 "/>
<text text-anchor="middle" x="24.8" y="-256.7" font-family="Courier New" font-size="14.00">slot</text>
<polyline fill="none" stroke="black" points="0,-248.5 49.61,-248.5 "/>
<text text-anchor="middle" x="24.8" y="-231.9" font-family="Courier New" font-size="14.00">0</text>
<polyline fill="none" stroke="black" points="0,-223.7 49.61,-223.7 "/>
<text text-anchor="middle" x="24.8" y="-207.1" font-family="Courier New" font-size="14.00">1</text>
<polyline fill="none" stroke="black" points="0,-198.9 49.61,-198.9 "/>
<text text-anchor="middle" x="24.8" y="-182.3" font-family="Courier New" font-size="14.00">2</text>
<polyline fill="none" stroke="black" points="0,-174.1 49.61,-174.1 "/>
<text text-anchor="middle" x="24.8" y="-157.5" font-family="Courier New" font-size="14.00">3</text>
<polyline fill="none" stroke="black" points="0,-149.3 49.61,-149.3 "/>
<text text-anchor="middle" x="24.8" y="-132.7" font-family="Courier New" font-size="14.00">4</text>
<polyline fill="none" stroke="black" points="0,-124.5 49.61,-124.5 "/>
<text text-anchor="middle" x="24.8" y="-107.9" font-family="Courier New" font-size="14.00">5</text>
<polyline fill="none" stroke="black" points="0,-99.7 49.61,-99.7 "/>
<text text-anchor="middle" x="24.8" y="-83.1" font-family="Courier New" font-size="14.00">6</text>
<polyline fill="none" stroke="black" points="0,-74.9 49.61,-74.9 "/>
<text text-anchor="middle" x="24.8" y="-58.3" font-family="Courier New" font-size="14.00">7</text>
<polyline fill="none" stroke="black" points="0,-50.1 49.61,-50.1 "/>
<text text-anchor="middle" x="24.8" y="-33.5" font-family="Courier New" font-size="14.00">8</text>
<polyline fill="none" stroke="black" points="0,-25.3 49.61,-25.3 "/>
<text text-anchor="middle" x="24.8" y="-8.7" font-family="Courier New" font-size="14.00">9</text>
<polyline fill="none" stroke="black" points="49.61,-0.5 49.61,-273.3 "/>
<text text-anchor="middle" x="355.05" y="-256.7" font-family="Courier New" font-size="14.00">type: &lt;inherited contract&gt;.variable (bytes)</text>
<polyline fill="none" stroke="black" points="49.61,-248.5 660.5,-248.5 "/>
<text text-anchor="middle" x="355.04" y="-231.9" font-family="Courier New" font-size="14.00">mapping(address=&gt;uint256): ERC20._balances (32)</text>
<polyline fill="none" stroke="black" points="49.61,-223.7 660.5,-223.7 "/>
<text text-anchor="middle" x="355.05" y="-207.1" font-family="Courier New" font-size="14.00">mapping(address=&gt;mapping(address=&gt;uint256)): ERC20._allowances (32)</text>
<polyline fill="none" stroke="black" points="49.61,-198.9 660.5,-198.9 "/>
<text text-anchor="middle" x="355.03" y="-182.3" font-family="Courier New" font-size="14.00">uint256: ERC20._totalSupply (32)</text>
<polyline fill="none" stroke="black" points="49.61,-174.1 660.5,-174.1 "/>
<text text-anchor="middle" x="354.92" y="-157.5" font-family="Courier New" font-size="14.00">string: ERC20._name (32)</text>
<polyline fill="none" stroke="black" points="49.61,-149.3 660.5,-149.3 "/>
<text text-anchor="middle" x="354.82" y="-132.7" font-family="Courier New" font-size="14.00">string: ERC20._symbol (32)</text>
<polyline fill="none" stroke="black" points="49.61,-124.5 660.5,-124.5 "/>
<text text-anchor="middle" x="124.82" y="-107.9" font-family="Courier New" font-size="14.00">unallocated (11)</text>
<polyline fill="none" stroke="black" points="200.03,-99.7 200.03,-124.5 "/>
<text text-anchor="middle" x="313.04" y="-107.9" font-family="Courier New" font-size="14.00">address: owned.owner (20)</text>
<polyline fill="none" stroke="black" points="426.06,-99.7 426.06,-124.5 "/>
<text text-anchor="middle" x="543.28" y="-107.9" font-family="Courier New" font-size="14.00">uint8: ERC20._decimals (1)</text>
<polyline fill="none" stroke="black" points="49.61,-99.7 660.5,-99.7 "/>
<text text-anchor="middle" x="354.72" y="-83.1" font-family="Courier New" font-size="14.00">string: _name (32)</text>
<polyline fill="none" stroke="black" points="49.61,-74.9 660.5,-74.9 "/>
<text text-anchor="middle" x="354.62" y="-58.3" font-family="Courier New" font-size="14.00">string: _symbol (32)</text>
<polyline fill="none" stroke="black" points="49.61,-50.1 660.5,-50.1 "/>
<text text-anchor="middle" x="187.32" y="-33.5" font-family="Courier New" font-size="14.00">unallocated (12)</text>
<polyline fill="none" stroke="black" points="325.03,-25.3 325.03,-50.1 "/>
<text text-anchor="middle" x="492.64" y="-33.5" font-family="Courier New" font-size="14.00">address: _supplyer (20)</text>
<polyline fill="none" stroke="black" points="49.61,-25.3 660.5,-25.3 "/>
<text text-anchor="middle" x="354.82" y="-8.7" font-family="Courier New" font-size="14.00">uint: value (32)</text>
</g>
</g>
</svg>
