<?xml version="1.0" encoding="utf-8"?>
<!-- Svg Vector Icons : http://www.onlinewebfonts.com/icon -->
<!DOCTYPE svg PUBLIC "-//W3C//DTD SVG 1.1//EN" "http://www.w3.org/Graphics/SVG/1.1/DTD/svg11.dtd">
<svg version="1.1" xmlns="http://www.w3.org/2000/svg" xmlns:xlink="http://www.w3.org/1999/xlink" x="0px" y="0px" viewBox="0 0 1000 1000" enable-background="new 0 0 1000 1000" xml:space="preserve">
<metadata> Svg Vector Icons : http://www.onlinewebfonts.com/icon </metadata>
<g><path d="M990,501.4c-1,268.8-224.2,489.5-493.8,488.4C231.8,988.7,9.1,764.4,10,500.3C11,230.5,233.8,9.3,503.6,10.2C769.3,11.2,991,235.1,990,501.4z M945.2,500.8c0.8-249.1-194.3-444.5-444.8-445.6C253.8,54.2,55.7,250.1,55.1,495.8c-0.7,252.4,193.5,448.5,444.8,449.1C748.5,945.5,944.4,750.1,945.2,500.8z"/><path d="M551.1,450.3c-19.6,23.4-39,24.3-60-2c-0.3,7.7-0.7,11.6-0.7,15.5c0,40.1,0.1,80.1-0.1,120.2c-0.1,18.9-15.2,30.3-30.9,23.6c-9.4-4-14-11.6-14-21.6c-0.1-61.8-0.1-123.6-0.1-185.4c0-9.4,4.7-16,13.1-19.7c8.8-3.9,17.2-2.5,24.6,3.6c10,8.3,20.1,16.4,29.5,25.3c6.4,6.1,11.3,6.9,18.1,0.3c8.7-8.5,18.6-15.8,27.7-23.9c7.8-7,16.5-9.6,26.3-5.5c10,4.2,13.6,12.2,13.6,22.9c-0.2,59.5-0.1,119-0.1,178.6c0,16.7-9,27.4-22.6,27.3c-13.6-0.1-22.4-10.7-22.4-27.5c-0.1-39.3,0-78.6-0.1-117.9c0-3.7,0-7.5,0-11.2C552.3,452.1,551.7,451.2,551.1,450.3z"/><path d="M325.4,568.6c21.7,0,41.4,0,62.6,0c0-4.9,0-9.4,0-13.8c0-48.8-0.1-97.7,0-146.5c0-13.7,8.5-23.5,20.6-24.6c11.5-1.1,22.4,7.8,24.2,19.7c0.4,2.6,0.2,5.3,0.2,8c0,58,0.1,116,0,174c0,21-7.9,28.8-29.2,28.8c-32.1,0-64.1,0.1-96.2-0.1c-19.1-0.1-27.3-8.3-27.4-27.1c-0.1-59.1-0.1-118.3,0-177.4c0-14,6.7-23,18.2-25.5c14.2-3.1,26.6,8.2,26.7,25c0.2,49.2,0.1,98.4,0.1,147.6C325.4,560.4,325.4,564.1,325.4,568.6z"/><path d="M842.3,499.7c-23.1-22.9-45.1-44.6-67-66.3c-3.5-3.5-7.2-6.9-10.3-10.7c-7.8-9.6-7.2-21.6,1.2-30c8.4-8.4,20.2-9,30-1.4c2.1,1.6,4,3.6,5.9,5.4c28,28,56.1,56,84.1,84.2c13.5,13.6,13.5,24.7-0.1,38.4c-28.2,28.4-56.6,56.7-84.9,84.9c-12.3,12.2-25.1,13.2-35,3c-10-10.2-8.7-22.5,3.7-35C793.4,548.5,817.2,524.8,842.3,499.7z"/><path d="M158.2,498.4c27.5,27.1,51.5,51,75.7,74.7c6.7,6.5,10.8,13.9,8.7,23.5c-3.9,17.1-24.6,23.3-37.7,10.6c-30.8-30.1-61.2-60.6-91.4-91.3c-9.8-9.9-9.7-21.7,0.1-31.6c30.2-30.7,60.7-61.1,91.4-91.3c9.8-9.7,22.6-9.2,31.6-0.1c8.8,8.9,9.2,21.9-0.4,31.7c-21.3,21.9-42.9,43.3-64.6,64.7C168.3,492.4,164,494.4,158.2,498.4z"/><path d="M659.9,569.1c14.3,0,27.2-0.1,40.1,0c15.8,0.1,26.2,9,26.3,22.4c0.1,13.2-10.5,22.5-26.1,22.6c-20.6,0.1-41.2,0.1-61.8,0c-14.6-0.1-23.5-8.9-23.5-23.4c-0.1-60.6-0.1-121.2,0-181.8c0-14.8,9.4-25.2,22.3-25.3c13.3-0.1,22.7,10.5,22.7,26c0.1,46.1,0,92.2,0,138.3C659.9,554.4,659.9,560.8,659.9,569.1z"/></g>
</svg>